<svg width="274" height="56" viewBox="0 0 274 56" fill="none" xmlns="http://www.w3.org/2000/svg">
<rect x="0.5" y="0.5" width="273" height="55" rx="9.5" fill="white"/>
<path d="M69.3429 34.5H67.3929V21.7H60.2329V34.5H58.2929V20.17H69.3429V34.5ZM79.0474 28.33C79.0474 27.9167 78.9874 27.54 78.8674 27.2C78.7541 26.8533 78.5841 26.5567 78.3574 26.31C78.1374 26.0567 77.8674 25.8633 77.5474 25.73C77.2274 25.59 76.8641 25.52 76.4574 25.52C75.6041 25.52 74.9274 25.77 74.4274 26.27C73.9341 26.7633 73.6274 27.45 73.5074 28.33H79.0474ZM80.4874 33.08C80.2674 33.3467 80.0041 33.58 79.6974 33.78C79.3908 33.9733 79.0608 34.1333 78.7074 34.26C78.3608 34.3867 78.0008 34.48 77.6274 34.54C77.2541 34.6067 76.8841 34.64 76.5174 34.64C75.8174 34.64 75.1708 34.5233 74.5774 34.29C73.9908 34.05 73.4808 33.7033 73.0474 33.25C72.6208 32.79 72.2874 32.2233 72.0474 31.55C71.8074 30.8767 71.6874 30.1033 71.6874 29.23C71.6874 28.5233 71.7941 27.8633 72.0074 27.25C72.2274 26.6367 72.5408 26.1067 72.9474 25.66C73.3541 25.2067 73.8508 24.8533 74.4374 24.6C75.0241 24.34 75.6841 24.21 76.4174 24.21C77.0241 24.21 77.5841 24.3133 78.0974 24.52C78.6174 24.72 79.0641 25.0133 79.4374 25.4C79.8174 25.78 80.1141 26.2533 80.3274 26.82C80.5408 27.38 80.6474 28.02 80.6474 28.74C80.6474 29.02 80.6174 29.2067 80.5574 29.3C80.4974 29.3933 80.3841 29.44 80.2174 29.44H73.4474C73.4674 30.08 73.5541 30.6367 73.7074 31.11C73.8674 31.5833 74.0874 31.98 74.3674 32.3C74.6474 32.6133 74.9808 32.85 75.3674 33.01C75.7541 33.1633 76.1874 33.24 76.6674 33.24C77.1141 33.24 77.4974 33.19 77.8174 33.09C78.1441 32.9833 78.4241 32.87 78.6574 32.75C78.8908 32.63 79.0841 32.52 79.2374 32.42C79.3974 32.3133 79.5341 32.26 79.6474 32.26C79.7941 32.26 79.9074 32.3167 79.9874 32.43L80.4874 33.08ZM84.6238 32.06C84.9505 32.5 85.3072 32.81 85.6938 32.99C86.0805 33.17 86.5138 33.26 86.9938 33.26C87.9405 33.26 88.6672 32.9233 89.1738 32.25C89.6805 31.5767 89.9338 30.6167 89.9338 29.37C89.9338 28.71 89.8738 28.1433 89.7538 27.67C89.6405 27.1967 89.4738 26.81 89.2538 26.51C89.0338 26.2033 88.7638 25.98 88.4438 25.84C88.1238 25.7 87.7605 25.63 87.3538 25.63C86.7738 25.63 86.2638 25.7633 85.8238 26.03C85.3905 26.2967 84.9905 26.6733 84.6238 27.16V32.06ZM84.5338 25.94C84.9605 25.4133 85.4538 24.99 86.0138 24.67C86.5738 24.35 87.2138 24.19 87.9338 24.19C88.5205 24.19 89.0505 24.3033 89.5238 24.53C89.9972 24.75 90.4005 25.08 90.7338 25.52C91.0672 25.9533 91.3238 26.4933 91.5038 27.14C91.6838 27.7867 91.7738 28.53 91.7738 29.37C91.7738 30.1167 91.6738 30.8133 91.4738 31.46C91.2738 32.1 90.9838 32.6567 90.6038 33.13C90.2305 33.5967 89.7705 33.9667 89.2238 34.24C88.6838 34.5067 88.0738 34.64 87.3938 34.64C86.7738 34.64 86.2405 34.5367 85.7938 34.33C85.3538 34.1167 84.9638 33.8233 84.6238 33.45V37.93H82.8338V24.37H83.9038C84.1572 24.37 84.3138 24.4933 84.3738 24.74L84.5338 25.94ZM100.805 28.33C100.805 27.9167 100.745 27.54 100.625 27.2C100.512 26.8533 100.342 26.5567 100.115 26.31C99.8952 26.0567 99.6252 25.8633 99.3052 25.73C98.9852 25.59 98.6219 25.52 98.2152 25.52C97.3619 25.52 96.6852 25.77 96.1852 26.27C95.6919 26.7633 95.3852 27.45 95.2652 28.33H100.805ZM102.245 33.08C102.025 33.3467 101.762 33.58 101.455 33.78C101.149 33.9733 100.819 34.1333 100.465 34.26C100.119 34.3867 99.7586 34.48 99.3852 34.54C99.0119 34.6067 98.6419 34.64 98.2752 34.64C97.5752 34.64 96.9286 34.5233 96.3352 34.29C95.7486 34.05 95.2386 33.7033 94.8052 33.25C94.3786 32.79 94.0452 32.2233 93.8052 31.55C93.5652 30.8767 93.4452 30.1033 93.4452 29.23C93.4452 28.5233 93.5519 27.8633 93.7652 27.25C93.9852 26.6367 94.2986 26.1067 94.7052 25.66C95.1119 25.2067 95.6086 24.8533 96.1952 24.6C96.7819 24.34 97.4419 24.21 98.1752 24.21C98.7819 24.21 99.3419 24.3133 99.8552 24.52C100.375 24.72 100.822 25.0133 101.195 25.4C101.575 25.78 101.872 26.2533 102.085 26.82C102.299 27.38 102.405 28.02 102.405 28.74C102.405 29.02 102.375 29.2067 102.315 29.3C102.255 29.3933 102.142 29.44 101.975 29.44H95.2052C95.2252 30.08 95.3119 30.6367 95.4652 31.11C95.6252 31.5833 95.8452 31.98 96.1252 32.3C96.4052 32.6133 96.7386 32.85 97.1252 33.01C97.5119 33.1633 97.9452 33.24 98.4252 33.24C98.8719 33.24 99.2552 33.19 99.5752 33.09C99.9019 32.9833 100.182 32.87 100.415 32.75C100.649 32.63 100.842 32.52 100.995 32.42C101.155 32.3133 101.292 32.26 101.405 32.26C101.552 32.26 101.665 32.3167 101.745 32.43L102.245 33.08ZM103.952 25.41C104.332 25.05 104.792 24.76 105.332 24.54C105.878 24.32 106.535 24.21 107.302 24.21C107.915 24.21 108.455 24.2867 108.922 24.44C109.388 24.5867 109.778 24.7833 110.092 25.03C110.412 25.2767 110.652 25.56 110.812 25.88C110.978 26.1933 111.062 26.52 111.062 26.86C111.062 27.06 111.028 27.27 110.962 27.49C110.902 27.71 110.798 27.92 110.652 28.12C110.505 28.32 110.315 28.5067 110.082 28.68C109.848 28.8533 109.558 28.9933 109.212 29.1C109.858 29.2933 110.365 29.6033 110.732 30.03C111.105 30.4567 111.292 30.98 111.292 31.6C111.292 32.0667 111.185 32.49 110.972 32.87C110.758 33.2433 110.472 33.5633 110.112 33.83C109.752 34.09 109.332 34.29 108.852 34.43C108.378 34.57 107.882 34.64 107.362 34.64C107.035 34.64 106.702 34.61 106.362 34.55C106.028 34.49 105.702 34.3967 105.382 34.27C105.062 34.1367 104.758 33.9733 104.472 33.78C104.192 33.5867 103.942 33.3533 103.722 33.08L104.222 32.43C104.302 32.3167 104.415 32.26 104.562 32.26C104.682 32.26 104.808 32.3133 104.942 32.42C105.082 32.52 105.252 32.6333 105.452 32.76C105.652 32.8867 105.895 33.0033 106.182 33.11C106.475 33.21 106.832 33.26 107.252 33.26C107.618 33.26 107.945 33.2167 108.232 33.13C108.525 33.0367 108.772 32.91 108.972 32.75C109.172 32.59 109.325 32.4 109.432 32.18C109.538 31.96 109.592 31.72 109.592 31.46C109.592 30.96 109.382 30.5567 108.962 30.25C108.548 29.9433 107.918 29.79 107.072 29.79H105.922V28.61H107.072C107.438 28.61 107.768 28.5733 108.062 28.5C108.355 28.42 108.605 28.3133 108.812 28.18C109.018 28.0467 109.175 27.8867 109.282 27.7C109.388 27.5067 109.442 27.3 109.442 27.08C109.442 26.88 109.395 26.69 109.302 26.51C109.215 26.33 109.078 26.1733 108.892 26.04C108.712 25.9067 108.485 25.8 108.212 25.72C107.938 25.64 107.618 25.6 107.252 25.6C106.852 25.6 106.512 25.64 106.232 25.72C105.958 25.8 105.725 25.8867 105.532 25.98C105.345 26.0733 105.192 26.16 105.072 26.24C104.952 26.32 104.848 26.36 104.762 26.36C104.675 26.36 104.602 26.3433 104.542 26.31C104.488 26.2767 104.428 26.2067 104.362 26.1L103.952 25.41ZM117.466 33.25C118.133 33.25 118.659 33.0967 119.046 32.79C119.433 32.4767 119.626 32.05 119.626 31.51C119.626 31.27 119.589 31.0533 119.516 30.86C119.443 30.66 119.323 30.4867 119.156 30.34C118.989 30.1933 118.766 30.08 118.486 30C118.213 29.92 117.876 29.88 117.476 29.88H115.286V33.25H117.466ZM115.286 25.57V28.75H117.236C117.529 28.75 117.799 28.71 118.046 28.63C118.299 28.5433 118.516 28.4267 118.696 28.28C118.876 28.1267 119.016 27.9467 119.116 27.74C119.216 27.5267 119.266 27.2933 119.266 27.04C119.266 26.8533 119.233 26.6733 119.166 26.5C119.099 26.32 118.986 26.1633 118.826 26.03C118.666 25.89 118.456 25.78 118.196 25.7C117.936 25.6133 117.616 25.57 117.236 25.57H115.286ZM117.286 24.37C117.913 24.37 118.449 24.4333 118.896 24.56C119.343 24.6867 119.709 24.86 119.996 25.08C120.283 25.2933 120.493 25.5467 120.626 25.84C120.759 26.1333 120.826 26.4467 120.826 26.78C120.826 27 120.796 27.23 120.736 27.47C120.676 27.71 120.569 27.94 120.416 28.16C120.269 28.38 120.066 28.58 119.806 28.76C119.553 28.9333 119.233 29.07 118.846 29.17C119.619 29.3033 120.216 29.5733 120.636 29.98C121.056 30.38 121.266 30.91 121.266 31.57C121.266 32.0633 121.166 32.4933 120.966 32.86C120.773 33.22 120.503 33.5233 120.156 33.77C119.816 34.0167 119.416 34.2 118.956 34.32C118.496 34.44 118.003 34.5 117.476 34.5H113.576V24.37H117.286ZM127.768 24.21C128.508 24.21 129.175 24.3333 129.768 24.58C130.361 24.8267 130.868 25.1767 131.288 25.63C131.708 26.0833 132.028 26.6333 132.248 27.28C132.475 27.92 132.588 28.6367 132.588 29.43C132.588 30.23 132.475 30.95 132.248 31.59C132.028 32.23 131.708 32.7767 131.288 33.23C130.868 33.6833 130.361 34.0333 129.768 34.28C129.175 34.52 128.508 34.64 127.768 34.64C127.021 34.64 126.348 34.52 125.748 34.28C125.155 34.0333 124.648 33.6833 124.228 33.23C123.808 32.7767 123.485 32.23 123.258 31.59C123.038 30.95 122.928 30.23 122.928 29.43C122.928 28.6367 123.038 27.92 123.258 27.28C123.485 26.6333 123.808 26.0833 124.228 25.63C124.648 25.1767 125.155 24.8267 125.748 24.58C126.348 24.3333 127.021 24.21 127.768 24.21ZM127.768 33.25C128.768 33.25 129.515 32.9167 130.008 32.25C130.501 31.5767 130.748 30.64 130.748 29.44C130.748 28.2333 130.501 27.2933 130.008 26.62C129.515 25.9467 128.768 25.61 127.768 25.61C127.261 25.61 126.818 25.6967 126.438 25.87C126.065 26.0433 125.751 26.2933 125.498 26.62C125.251 26.9467 125.065 27.35 124.938 27.83C124.818 28.3033 124.758 28.84 124.758 29.44C124.758 30.64 125.005 31.5767 125.498 32.25C125.998 32.9167 126.755 33.25 127.768 33.25ZM143.286 24.37V34.5H141.496V29.76H136.636V34.5H134.846V24.37H136.636V28.41H141.496V24.37H143.286ZM154.805 24.37V34.5H153.025V27.62C153.025 27.4867 153.032 27.3433 153.045 27.19C153.058 27.0367 153.075 26.8833 153.095 26.73C153.035 26.8633 152.975 26.9867 152.915 27.1C152.855 27.2133 152.792 27.3167 152.725 27.41L147.835 34.06C147.762 34.1667 147.668 34.27 147.555 34.37C147.448 34.4633 147.328 34.51 147.195 34.51H146.115V24.38H147.905V31.26C147.905 31.3867 147.898 31.5267 147.885 31.68C147.872 31.8267 147.855 31.9767 147.835 32.13C147.895 32.0033 147.955 31.8867 148.015 31.78C148.075 31.6667 148.135 31.5633 148.195 31.47L153.085 24.82C153.158 24.7133 153.252 24.6133 153.365 24.52C153.478 24.42 153.602 24.37 153.735 24.37H154.805ZM166.039 25.73H162.149V34.5H160.369V25.73H156.479V24.37H166.039V25.73ZM174.106 28.33C174.106 27.9167 174.046 27.54 173.926 27.2C173.813 26.8533 173.643 26.5567 173.416 26.31C173.196 26.0567 172.926 25.8633 172.606 25.73C172.286 25.59 171.923 25.52 171.516 25.52C170.663 25.52 169.986 25.77 169.486 26.27C168.993 26.7633 168.686 27.45 168.566 28.33H174.106ZM175.546 33.08C175.326 33.3467 175.063 33.58 174.756 33.78C174.449 33.9733 174.119 34.1333 173.766 34.26C173.419 34.3867 173.059 34.48 172.686 34.54C172.313 34.6067 171.943 34.64 171.576 34.64C170.876 34.64 170.229 34.5233 169.636 34.29C169.049 34.05 168.539 33.7033 168.106 33.25C167.679 32.79 167.346 32.2233 167.106 31.55C166.866 30.8767 166.746 30.1033 166.746 29.23C166.746 28.5233 166.853 27.8633 167.066 27.25C167.286 26.6367 167.599 26.1067 168.006 25.66C168.413 25.2067 168.909 24.8533 169.496 24.6C170.083 24.34 170.743 24.21 171.476 24.21C172.083 24.21 172.643 24.3133 173.156 24.52C173.676 24.72 174.123 25.0133 174.496 25.4C174.876 25.78 175.173 26.2533 175.386 26.82C175.599 27.38 175.706 28.02 175.706 28.74C175.706 29.02 175.676 29.2067 175.616 29.3C175.556 29.3933 175.443 29.44 175.276 29.44H168.506C168.526 30.08 168.613 30.6367 168.766 31.11C168.926 31.5833 169.146 31.98 169.426 32.3C169.706 32.6133 170.039 32.85 170.426 33.01C170.813 33.1633 171.246 33.24 171.726 33.24C172.173 33.24 172.556 33.19 172.876 33.09C173.203 32.9833 173.483 32.87 173.716 32.75C173.949 32.63 174.143 32.52 174.296 32.42C174.456 32.3133 174.593 32.26 174.706 32.26C174.853 32.26 174.966 32.3167 175.046 32.43L175.546 33.08ZM194.3 24.34V34.5H192.69V27.77C192.69 27.5833 192.7 27.3767 192.72 27.15C192.746 26.9167 192.78 26.7 192.82 26.5L189.3 32.67C189.246 32.77 189.176 32.85 189.09 32.91C189.003 32.97 188.903 33 188.79 33H188.59C188.476 33 188.373 32.97 188.28 32.91C188.193 32.85 188.123 32.77 188.07 32.67L184.49 26.48C184.523 26.68 184.553 26.9 184.58 27.14C184.606 27.3733 184.62 27.5833 184.62 27.77V34.5H183.01V24.34H184.44C184.566 24.34 184.69 24.37 184.81 24.43C184.93 24.4833 185.033 24.5867 185.12 24.74L188.28 30.02C188.433 30.3267 188.57 30.65 188.69 30.99C188.803 30.6367 188.936 30.3133 189.09 30.02L192.19 24.74C192.276 24.58 192.38 24.4733 192.5 24.42C192.62 24.3667 192.743 24.34 192.87 24.34H194.3ZM205.551 24.37V34.5H203.761V29.76H198.901V34.5H197.111V24.37H198.901V28.41H203.761V24.37H205.551ZM215.161 28.33C215.161 27.9167 215.101 27.54 214.981 27.2C214.867 26.8533 214.697 26.5567 214.471 26.31C214.251 26.0567 213.981 25.8633 213.661 25.73C213.341 25.59 212.977 25.52 212.571 25.52C211.717 25.52 211.041 25.77 210.541 26.27C210.047 26.7633 209.741 27.45 209.621 28.33H215.161ZM216.601 33.08C216.381 33.3467 216.117 33.58 215.811 33.78C215.504 33.9733 215.174 34.1333 214.821 34.26C214.474 34.3867 214.114 34.48 213.741 34.54C213.367 34.6067 212.997 34.64 212.631 34.64C211.931 34.64 211.284 34.5233 210.691 34.29C210.104 34.05 209.594 33.7033 209.161 33.25C208.734 32.79 208.401 32.2233 208.161 31.55C207.921 30.8767 207.801 30.1033 207.801 29.23C207.801 28.5233 207.907 27.8633 208.121 27.25C208.341 26.6367 208.654 26.1067 209.061 25.66C209.467 25.2067 209.964 24.8533 210.551 24.6C211.137 24.34 211.797 24.21 212.531 24.21C213.137 24.21 213.697 24.3133 214.211 24.52C214.731 24.72 215.177 25.0133 215.551 25.4C215.931 25.78 216.227 26.2533 216.441 26.82C216.654 27.38 216.761 28.02 216.761 28.74C216.761 29.02 216.731 29.2067 216.671 29.3C216.611 29.3933 216.497 29.44 216.331 29.44H209.561C209.581 30.08 209.667 30.6367 209.821 31.11C209.981 31.5833 210.201 31.98 210.481 32.3C210.761 32.6133 211.094 32.85 211.481 33.01C211.867 33.1633 212.301 33.24 212.781 33.24C213.227 33.24 213.611 33.19 213.931 33.09C214.257 32.9833 214.537 32.87 214.771 32.75C215.004 32.63 215.197 32.52 215.351 32.42C215.511 32.3133 215.647 32.26 215.761 32.26C215.907 32.26 216.021 32.3167 216.101 32.43L216.601 33.08Z" fill="#121761"/>
<rect x="0.5" y="0.5" width="273" height="55" rx="9.5" stroke="#121761"/>
</svg>
